<?xml version="1.0" encoding="utf-8"?>
<!-- Generator: Adobe Illustrator 21.0.0, SVG Export Plug-In . SVG Version: 6.00 Build 0)  -->
<svg width="196" height="54" version="1.1" id="Layer_1" xmlns="http://www.w3.org/2000/svg" xmlns:xlink="http://www.w3.org/1999/xlink" x="0px" y="0px"
	 viewBox="0 0 952.3 264" style="enable-background:new 0 0 952.3 264;" xml:space="preserve">
<style type="text/css">
	.st0{fill:#6352CD;}
	.st1{fill:#FFFFFF;}
</style>
<g>
	<g transform="translate(0.000000,130.000000) scale(0.030000,-0.030000)" fill="#30ba8f" stroke="none">
		<path d="M3829 4036 c-2 -2 -55 -6 -118 -10 -588 -33 -1239 -248 -1760 -579
		-257 -163 -420 -295 -656 -531 -188 -188 -280 -294 -407 -471 -561 -781 -805
		-1749 -683 -2715 138 -1088 749 -2072 1670 -2687 510 -340 1102 -553 1724
		-618 184 -19 588 -19 778 0 644 65 1264 295 1793 663 268 187 591 488 786 732
		448 562 709 1165 815 1885 31 204 38 694 14 908 -102 920 -486 1710 -1141
		2347 -612 595 -1379 956 -2242 1055 -118 14 -563 30 -573 21z m523 -232 c837
		-86 1589 -444 2183 -1039 405 -404 695 -873 875 -1414 224 -674 240 -1438 44
		-2121 -370 -1291 -1437 -2276 -2749 -2539 -485 -98 -1011 -94 -1485 10 -1081
		237 -2001 965 -2480 1964 -190 397 -307 832 -341 1269 -15 195 -7 572 16 741
		90 672 348 1277 768 1804 128 160 385 417 548 547 546 437 1192 704 1884 778
		183 19 550 20 737 0z"/>
		<path d="M3765 3654 c-485 -39 -903 -153 -1307 -355 -1250 -625 -2000 -1936
		-1899 -3319 77 -1041 607 -1980 1457 -2576 799 -560 1792 -752 2752 -533 878
		201 1662 762 2145 1536 92 148 235 439 296 605 150 405 213 757 215 1198 1
		333 -26 559 -101 855 -246 969 -898 1781 -1791 2229 -365 183 -745 297 -1162
		346 -98 11 -516 21 -605 14z m-1235 -2787 c0 -1677 0 -1705 20 -1783 71 -279
		255 -445 491 -446 251 -1 425 145 501 417 22 79 22 87 26 903 l3 822 409 0
		409 0 4 -827 c3 -915 -1 -858 70 -1007 41 -85 138 -195 200 -225 119 -58 315
		-78 427 -45 149 44 259 172 322 374 l23 75 3 1723 c2 1374 5 1722 15 1722 18
		0 212 -109 304 -171 149 -100 302 -224 441 -357 l72 -70 0 -1468 c0 -1269 -2
		-1482 -15 -1564 -44 -274 -159 -501 -354 -703 -97 -101 -194 -179 -267 -215
		-72 -36 -275 -100 -394 -123 -156 -31 -373 -31 -510 -2 -187 41 -347 114 -495
		227 -68 53 -185 168 -216 213 -15 22 -17 21 -120 -80 -263 -257 -570 -387
		-917 -387 -496 0 -893 231 -1096 637 -72 144 -105 241 -149 441 -21 96 -21
		110 -24 1543 l-4 1445 64 75 c63 73 194 192 312 280 123 93 414 279 437 279 4
		0 8 -767 8 -1703z"/>
	</g>
</g>
<g>
	<g>
		 <text x="280" y="200" font-family="Courier" font-weight="bold" font-size="170" fill="#6352CD">WonCex</text>

	</g>
</g>
</svg>
